<svg id="Capa_1" data-name="Capa 1" xmlns="http://www.w3.org/2000/svg" viewBox="0 0 270 74"><defs><style>.cls-1{fill:#003976;}.cls-2{fill:#ccd7e4;}.cls-3{fill:#feecb2;}.cls-4{fill:#6688ad;}.cls-5{fill:#fcc000;}.cls-6{fill:#fccd33;}</style></defs><title>logoupscolor</title><rect class="cls-1" x="56.22" y="25.64" width="213.78" height="1.2"/><rect class="cls-1" x="56.22" y="8.89" width="213.78" height="1.2"/><rect class="cls-1" x="34.9" y="69.21" width="179.56" height="1.2"/><path class="cls-1" d="M85.66,14v5.11c0,3-1.74,4-3.85,4S78,21.85,78,19.07V14h1.92v5.17a1.87,1.87,0,0,0,1.91,2.07c1,0,1.95-.62,1.95-2.23V14Z"/><polygon class="cls-1" points="95.92 22.95 94.3 22.95 90.04 17.18 90.04 22.95 88.12 22.95 88.12 13.95 89.88 13.95 93.99 19.45 93.99 13.95 95.92 13.95 95.92 22.95"/><rect class="cls-1" x="98.5" y="13.95" width="1.92" height="8.99"/><polygon class="cls-1" points="106.69 23.07 105.85 23.07 102.12 13.95 104.21 13.95 106.25 19.09 108.18 13.95 110.24 13.95 106.69 23.07"/><polygon class="cls-1" points="117.6 22.95 111.92 22.95 111.92 13.95 117.52 13.95 117.52 15.6 113.83 15.6 113.83 17.49 117.35 17.49 117.35 19.14 113.83 19.14 113.83 21.3 117.6 21.3 117.6 22.95"/><path class="cls-1" d="M119.86,14v9h1.91V19.3h.56c1,0,1.34,1.72,2.17,3.65h2.11c-1.09-2.64-1.32-3.75-2.11-4.21a2.34,2.34,0,0,0,1.32-2.2A2.49,2.49,0,0,0,123.3,14Zm1.91,1.65h1c.72,0,1.09.34,1.09,1a1,1,0,0,1-1,1h-1Z"/><path class="cls-1" d="M133.46,16.29a5.34,5.34,0,0,0-2.44-.81c-.68,0-1.12.3-1.12.74,0,1.36,3.91,1,3.91,4.12a2.68,2.68,0,0,1-3,2.73,4.71,4.71,0,0,1-2.78-.87V20.26a4.15,4.15,0,0,0,2.63,1.16c.74,0,1.13-.31,1.13-.83,0-1.48-3.91-.94-3.91-4.17,0-1.56,1.15-2.59,2.93-2.59a5.65,5.65,0,0,1,2.61.7Z"/><rect class="cls-1" x="135.97" y="13.95" width="1.92" height="8.99"/><path class="cls-1" d="M140.44,14v9h3.19c3.07,0,4.47-1.9,4.47-4.49S146.66,14,143.85,14Zm1.92,1.65h1.24c1.81,0,2.52,1.31,2.52,2.85,0,1.32-.57,2.85-2.5,2.85h-1.26Z"/><path class="cls-1" d="M153.1,16.11,152,19.6h2.37ZM157.61,23h-2.07l-.63-1.78h-3.45L150.89,23h-2l3.1-9h2.23Z"/><path class="cls-1" d="M159.28,14v9h3.18c3.08,0,4.48-1.9,4.48-4.49S165.49,14,162.68,14Zm1.92,1.65h1.23c1.82,0,2.53,1.31,2.53,2.85,0,1.32-.57,2.85-2.5,2.85H161.2Z"/><path class="cls-1" d="M175.07,17.69H176c.88,0,1.2-.37,1.2-1s-.38-1-1.41-1h-.68ZM176.58,14a2.53,2.53,0,0,1,2.55,2.67,2.53,2.53,0,0,1-2.54,2.71h-1.52V23h-1.92V14Z"/><path class="cls-1" d="M189.76,18.45a4.41,4.41,0,1,0-8.82,0,4.41,4.41,0,1,0,8.82,0m-2,0a2.45,2.45,0,1,1-4.86,0,2.45,2.45,0,1,1,4.86,0"/><polygon class="cls-1" points="197.82 22.95 191.94 22.95 191.94 13.95 193.86 13.95 193.86 21.3 197.82 21.3 197.82 22.95"/><rect class="cls-1" x="199.74" y="13.95" width="1.92" height="8.99"/><polygon class="cls-1" points="211.19 15.6 208.4 15.6 208.4 22.95 206.47 22.95 206.47 15.6 203.69 15.6 203.69 13.95 211.19 13.95 211.19 15.6"/><polygon class="cls-1" points="218.84 22.95 213.16 22.95 213.16 13.95 218.76 13.95 218.76 15.6 215.08 15.6 215.08 17.49 218.59 17.49 218.59 19.14 215.08 19.14 215.08 21.3 218.84 21.3 218.84 22.95"/><path class="cls-1" d="M228.28,22.17a5.35,5.35,0,0,1-3,.9,4.35,4.35,0,0,1-4.48-4.59,4.5,4.5,0,0,1,4.63-4.65,4.8,4.8,0,0,1,2.79.8v2a4.85,4.85,0,0,0-2.65-.92,2.64,2.64,0,0,0-2.79,2.72,2.64,2.64,0,0,0,2.74,2.76,5.45,5.45,0,0,0,2.79-1Z"/><polygon class="cls-1" points="238.4 22.95 236.78 22.95 232.53 17.18 232.53 22.95 230.61 22.95 230.61 13.95 232.37 13.95 236.48 19.45 236.48 13.95 238.4 13.95 238.4 22.95"/><rect class="cls-1" x="240.99" y="13.95" width="1.92" height="8.99"/><path class="cls-1" d="M252.65,22.17a5.34,5.34,0,0,1-3,.9,4.35,4.35,0,0,1-4.49-4.59,4.5,4.5,0,0,1,4.63-4.65,4.8,4.8,0,0,1,2.79.8v2a4.85,4.85,0,0,0-2.65-.92,2.64,2.64,0,0,0-2.79,2.72,2.64,2.64,0,0,0,2.74,2.76,5.45,5.45,0,0,0,2.79-1Z"/><path class="cls-1" d="M258.39,16.11l-1.13,3.49h2.38ZM262.9,23h-2.07l-.63-1.78h-3.45L256.17,23h-2l3.11-9h2.22Z"/><path class="cls-1" d="M94,39c-3.19-1.88-5.1-2.61-7-2.61s-3.23.94-3.23,2.4C83.75,43.21,95,42,95,52.14,95,57.73,91.4,61,86.49,61c-3.83,0-5.74-1.33-7.94-2.82V51.88c3.17,2.78,5.11,3.76,7.52,3.76,2.1,0,3.24-1,3.24-2.69,0-4.79-11.21-3-11.21-13.5,0-5.05,3.29-8.38,8.39-8.38A14.45,14.45,0,0,1,94,33.34Z"/><path class="cls-1" d="M111.55,31.46h-6.36L96.31,60.59h5.81l1.65-5.76h9.84l1.81,5.76h5.91ZM112,49.74h-6.78l3.23-11.32Z"/><polygon class="cls-1" points="140.67 60.59 123.88 60.59 123.88 31.46 129.36 31.46 129.36 55.26 140.67 55.26 140.67 60.59"/><polygon class="cls-1" points="160.04 60.59 143.8 60.59 143.8 31.46 159.81 31.46 159.81 36.8 149.29 36.8 149.29 42.91 159.33 42.91 159.33 48.25 149.29 48.25 149.29 55.26 160.04 55.26 160.04 60.59"/><path class="cls-1" d="M179,39c-3.2-1.88-5.1-2.61-7-2.61s-3.23.94-3.23,2.4c0,4.4,11.21,3.16,11.21,13.33,0,5.59-3.55,8.84-8.46,8.84-3.84,0-5.75-1.33-7.94-2.82V51.88c3.16,2.78,5.1,3.76,7.52,3.76,2.1,0,3.23-1,3.23-2.69,0-4.79-11.2-3-11.2-13.5,0-5.05,3.29-8.38,8.39-8.38A14.51,14.51,0,0,1,179,33.34Z"/><rect class="cls-1" x="183.92" y="31.46" width="5.49" height="29.14"/><path class="cls-1" d="M207.36,31.46H201l-8.87,29.13h5.8l1.65-5.76h9.85l1.8,5.76h5.91Zm.45,18.28H201l3.23-11.32Z"/><polygon class="cls-1" points="242 60.59 237.38 60.59 225.22 41.92 225.22 60.59 219.72 60.59 219.72 31.46 224.76 31.46 236.51 49.27 236.51 31.46 242 31.46 242 60.59"/><path class="cls-1" d="M259.82,31.46h-6.36l-8.88,29.13h5.81L252,54.83h9.85l1.8,5.76h5.91Zm.45,18.28h-6.78l3.23-11.32Z"/><path class="cls-2" d="M73.38,36.89A36.51,36.51,0,1,1,36.88.66a36.37,36.37,0,0,1,36.5,36.23"/><path class="cls-3" d="M50.8,3.43C39.46-1,30.59,1.28,30.59,1.28a4.3,4.3,0,0,0-.13,2.53c.4,1.19-1.18.79-.39,2s-1.58,1.58-3.56,4.34,0,0-1.19,2-.39,1.57-2.37,3.15a11.88,11.88,0,0,1-4.35,2.37,13.51,13.51,0,0,0-3.87,2.74L6.18,50.57,4.5,53.78s9.27,19.45,32.37,19.35a36,36,0,0,0,15.37-3.37L50.9,8.44Z"/><path class="cls-4" d="M4.47,33s-.6-1.28,1-.68c0,0,.74-.31.11-.71,0,0-1.72-.91-.17-1.94a6.42,6.42,0,0,0,1.31-.79l.17-1.37.35-.11.06-1.82s-1.26-.74.23-1.25c0,0,.68-1.14,4.06-1.31,0,0,.81-.85,1.38-.68,0,0,.63-.86,1-.91a3,3,0,0,1,1,1s1.09.34,1.2.9a3.14,3.14,0,0,1,2.07,1.37s.86.23.91-.06c0,0,.06-.74,1.61,1L21,26.76l1.88.16.17.52,3.62.06.45-.91s.06-.8,2.75,1.75l1,.07.24.68,1.54.23s.46.39-1.66.28l.12.91a4.22,4.22,0,0,1,1.66,1.2L32.85,34s-.8-.16-1.26,1.15l-.05,1.19s-3.39,5.52-8.71,6.59A23.4,23.4,0,0,0,18.24,45a16.1,16.1,0,0,0-2,1.7l-.17,1.82s-.4,1.09-1,1.2c0,0,.18,1.59-.34,1.64,0,0,1.15,1.65-.92,1.82a2,2,0,0,0-.85,1.2s-1.09,1.47-2.7-.68c0,0,0-1.54-1.32-1.37,0,0-1,.29-2-1,0,0-1-.46-1.21,1,0,0-1.38.52-.34-1.08,0,0-.18-.8-.58-1,0,0-.46-1,.81-.34l.68-.23.17-1.31s-.91-1.3,0-1.42c0,0,.57-.06.63-1.25l.69-.11.12-1.2.28-.28-.06-1.2.63,0,.06-1-.28-.18-.23-.57L8.28,40l.23-.39v-.4l-.4.11-.35,2.44-.54-1.49L7,41v.34l-.23.23-.06.45-.57.28v.4H4.9a6.64,6.64,0,0,1-1.55-1.36S1.81,41.48,2.6,40l.75-.22s.4-1.37-.45-1.71c0,0-.46-1.25.11-1l.23-1.25-.46-.52-.06-1.53s1.55-.17,1.75-.71"/><path class="cls-1" d="M37.18.77a36.23,36.23,0,1,1,0,72.46"/><path class="cls-1" d="M37.18,1.37A35.87,35.87,0,0,1,70.26,23.13a35.52,35.52,0,0,1,0,27.74A35.9,35.9,0,0,1,37.18,72.63v1.2A37,37,0,0,0,63.42,63a36.78,36.78,0,0,0-11.79-60A37.17,37.17,0,0,0,37.18.17Z"/><path class="cls-5" d="M40.19,28.37l.17-1.8.19-2.4a19.18,19.18,0,0,1,3-4.24l.68,1.51S42.46,24.38,46.82,23l3.5-1.74s5.24,5.2,6.63.52l1.75-.17s1.4-2.78,3-.35v1s.18.35,1.58.52A7.13,7.13,0,0,1,62,29.58l.18,2.6L64.46,35l.18,2.59s.35.53,1-1c0,0,1.57-5.55,5.59-2.61l-.18,1.57s-1.22-2.09-2.79-.87a10.38,10.38,0,0,0-1.93,2.77s1.93,1.21,0,3.13l.53.68a4.24,4.24,0,0,0,.87-3.64s-.87-2.59,1.58-1.21c0,0,1.39,1.39-.7,6.25a14.29,14.29,0,0,0-1.4,2.07c-.18.53-.35,2.08-2.27.18,0,0,.52,3.64-1.22,4.16v4s.17,4.17-6.82,4.17v-1.4l4-3.64s-2.44,2.43-3.32-.34c0,0-.7-4,.18-4.34V45.19s-3.49-1.56-4.37-3.3a3.61,3.61,0,0,0,1.75,2.6s2.09,1.56,1,2.6c0,0-1.75.17-2.1,1,0,0-4.19.35-4.71-.35a4.43,4.43,0,0,1,2.79-3.12s-5.07,2.43-6.46-.86c0,0,.87,2.42-.7,2.42,0,0-2.79-.34-.52-2.94,0,0,1.57-1.56-.18-1.91l-2.62,1.91s-1.57.86-1-1.56c0,0-1.4-2.95-.87-4.34,0,0-.22-6.4.35-9"/><path class="cls-6" d="M46.48,50.56s-.88-4-2.62-.69a6.93,6.93,0,0,0,1.39,1.9l.18,1.39s.7,1.73,5.59,2.42A5.16,5.16,0,0,0,57,52.64,4.32,4.32,0,0,0,55,48.82s-8.38-1.21-7.68.18c0,0-.35.87,2.62.87,0,0-1.39.69-.87,1.21,0,0-2.27.69-2.62-.52"/><path class="cls-1" d="M41.06,26.63s.53,2.08,1.23,2.6c0,0,.69.87-.7.87,0,0,.17,2.61,1.39,2.61l4,.51s1.75,1.74.53,3.12L47,38.42s-.87,0-1.57-2.25H42.64s-3.15,1-1-1v-.69l-1.23-.18V31.32l.35-1.39Z"/><path class="cls-1" d="M49.27,33.57s1.39,3,3.14,3.12h1.4s1.92.69,2.79-.17a1.08,1.08,0,0,1,1.4.69s1.22,1,.71-.52l1.21-.35a12.48,12.48,0,0,1-2.62-2.43s-7.15.87-8-.34"/><path class="cls-1" d="M12.92,53.73a37.33,37.33,0,0,0-7.17,2.18L6.27,57a37.46,37.46,0,0,1,7-2.11,114,114,0,0,1,24.06-2.65l0-1.2a115.73,115.73,0,0,0-24.38,2.69"/><path class="cls-1" d="M6,17.68c.1.05,1.82,1.11,7,2.32A115.49,115.49,0,0,0,37.3,22.63l0-1.2a114.8,114.8,0,0,1-24-2.58c-5.11-1.18-6.83-2.25-6.85-2.26Z"/><path class="cls-1" d="M24.73,71.36l1.07.55c2.06-4,6.83-5.25,11.22-5.25a15.55,15.55,0,0,1,7.16,1.69c2.06,1.07,2.7,1.38,3.75,3.16l1-.61c-1.17-2-2-2.44-4.24-3.61A16.74,16.74,0,0,0,37,65.46c-4.8,0-10,1.55-12.29,5.9"/><path class="cls-1" d="M44.52,6.53A15.46,15.46,0,0,1,37,8.41c-5.34,0-9.84-1.83-11.9-5.78l-1.07.55c2.26,4.34,7.18,6.43,13,6.43s10.21-2,12.44-6.42l-1.09-.53a7.55,7.55,0,0,1-3.85,3.87"/><path class="cls-1" d="M14.42,17.22a46.48,46.48,0,0,0-4.33,19.9,46.42,46.42,0,0,0,4.5,20.27A31.51,31.51,0,0,0,26.3,70.8l.63-1C17.43,64.05,11.3,51.23,11.3,37.12a45.36,45.36,0,0,1,4.21-19.39A30.88,30.88,0,0,1,26.36,4.82l-.66-1A32.11,32.11,0,0,0,14.42,17.22"/><path class="cls-1" d="M23.35,37c0,12,2.73,23.11,7.48,30.51l1-.64a44.07,44.07,0,0,1-5.3-12.94,70,70,0,0,1-2-16.93c0-11.13,2.43-21.66,6.67-28.86l-1.05-.61C25.84,14.87,23.35,25.61,23.35,37"/><rect class="cls-1" x="0.53" y="36.86" width="37.98" height="1.2"/><path class="cls-1" d="M23.14,69.65a36,36,0,0,1-11.42-7.6A35.51,35.51,0,0,1,4,50.78,35.15,35.15,0,0,1,4,23.19,35.8,35.8,0,0,1,23.14,4.33,35.93,35.93,0,0,1,36.51,1.55V72.42a35.92,35.92,0,0,1-13.37-2.77M37.11.34A37.27,37.27,0,0,0,10.87,11.07,36.58,36.58,0,0,0,2.92,22.72a36.3,36.3,0,0,0,0,28.53,36.47,36.47,0,0,0,8,11.65,36.87,36.87,0,0,0,11.8,7.85,37.25,37.25,0,0,0,14.44,2.88h.61V.34Z"/><polygon class="cls-1" points="222.63 71.6 217.79 71.6 217.79 65.07 222.57 65.07 222.57 66.27 219.43 66.27 219.43 67.64 222.43 67.64 222.43 68.84 219.43 68.84 219.43 70.41 222.63 70.41 222.63 71.6"/><path class="cls-1" d="M230,71a5.1,5.1,0,0,1-2.58.65c-2.56,0-3.83-1.65-3.83-3.33S225.05,65,227.56,65a4.69,4.69,0,0,1,2.38.57V67a4.6,4.6,0,0,0-2.26-.67,2,2,0,1,0,0,4,5.11,5.11,0,0,0,2.38-.72Z"/><path class="cls-1" d="M237.84,65.07v3.71c0,2.16-1.49,2.91-3.29,2.91s-3.29-.89-3.29-2.9V65.07h1.64v3.76a1.49,1.49,0,0,0,1.63,1.5,1.52,1.52,0,0,0,1.67-1.62V65.07Z"/><path class="cls-1" d="M242.67,65.07h-1.9l-2.65,6.53h1.73l.5-1.29h2.94l.54,1.29h1.76Zm.13,4.1h-2l1-2.54Z"/><path class="cls-1" d="M246.34,65.07V71.6h2.72c2.62,0,3.82-1.38,3.82-3.25s-1.24-3.28-3.64-3.28Zm1.64,1.2H249a2.07,2.07,0,1,1,0,4.13H248Z"/><path class="cls-1" d="M261.33,68.34a3.79,3.79,0,1,0-3.75,3.35,3.49,3.49,0,0,0,3.75-3.35m-1.69,0a2.08,2.08,0,1,1-2.06-2,1.92,1.92,0,0,1,2.06,2"/><path class="cls-1" d="M264.16,67.75H265c.46,0,.9-.19.9-.74s-.32-.74-.93-.74h-.83Zm1.3-2.68A2,2,0,0,1,267.61,67a1.69,1.69,0,0,1-1.13,1.6c.68.34.88,1.14,1.81,3h-1.81c-.71-1.39-1-2.65-1.85-2.65h-.47V71.6h-1.64V65.07Z"/><polygon class="cls-1" points="217.06 11.1 215.63 13 218.5 12.05 217.06 11.1"/></svg>